<svg width="23" height="23" viewBox="0 0 23 23" fill="none" xmlns="http://www.w3.org/2000/svg">
<path d="M5.58203 20.377C4.70964 20.377 4.0651 20.1686 3.64844 19.752C3.23177 19.3353 3.02344 18.6908 3.02344 17.8184V15.709C3.02344 15.5137 2.95833 15.3477 2.82812 15.2109L1.33398 13.707C0.715495 13.0951 0.40625 12.4961 0.40625 11.9102C0.40625 11.3242 0.715495 10.722 1.33398 10.1035L2.82812 8.59961C2.95833 8.46289 3.02344 8.30013 3.02344 8.11133V5.99219C3.02344 5.11328 3.23177 4.46875 3.64844 4.05859C4.0651 3.64193 4.70964 3.43359 5.58203 3.43359H7.69141C7.89323 3.43359 8.05924 3.36849 8.18945 3.23828L9.69336 1.74414C10.3118 1.12565 10.9108 0.816406 11.4902 0.816406C12.0762 0.816406 12.6784 1.12565 13.2969 1.74414L14.8008 3.23828C14.9375 3.36849 15.1035 3.43359 15.2988 3.43359H17.4082C18.2871 3.43359 18.9316 3.64518 19.3418 4.06836C19.7585 4.48503 19.9668 5.1263 19.9668 5.99219V8.11133C19.9668 8.30013 20.0352 8.46289 20.1719 8.59961L21.6562 10.1035C22.2747 10.722 22.584 11.3242 22.584 11.9102C22.5905 12.4961 22.2812 13.0951 21.6562 13.707L20.1719 15.2109C20.0352 15.3477 19.9668 15.5137 19.9668 15.709V17.8184C19.9668 18.6973 19.7585 19.3418 19.3418 19.752C18.9251 20.1686 18.2806 20.377 17.4082 20.377H15.2988C15.1035 20.377 14.9375 20.4453 14.8008 20.582L13.2969 22.0762C12.6784 22.6882 12.0762 22.9941 11.4902 22.9941C10.9108 23.0007 10.3118 22.6947 9.69336 22.0762L8.18945 20.582C8.05924 20.4453 7.89323 20.377 7.69141 20.377H5.58203ZM5.58203 18.8242H8.20898C8.50846 18.8242 8.75586 18.9284 8.95117 19.1367L10.7871 20.9824C11.0996 21.2884 11.334 21.4414 11.4902 21.4414C11.653 21.4414 11.8906 21.2884 12.2031 20.9824L14.0488 19.1367C14.2441 18.9284 14.4883 18.8242 14.7812 18.8242H17.4082C17.8444 18.8242 18.1211 18.7656 18.2383 18.6484C18.3555 18.5312 18.4141 18.2546 18.4141 17.8184V15.1914C18.4141 14.9049 18.5182 14.6608 18.7266 14.459L20.5723 12.623C20.8783 12.3105 21.0312 12.0729 21.0312 11.9102C21.0312 11.7474 20.8783 11.5098 20.5723 11.1973L18.7266 9.36133C18.5182 9.15299 18.4141 8.9056 18.4141 8.61914V5.99219C18.4141 5.5625 18.3555 5.28906 18.2383 5.17188C18.1211 5.04818 17.8444 4.98633 17.4082 4.98633H14.7812C14.4883 4.98633 14.2441 4.88542 14.0488 4.68359L12.2031 2.83789C11.8906 2.5319 11.653 2.37891 11.4902 2.37891C11.334 2.37891 11.0996 2.5319 10.7871 2.83789L8.95117 4.68359C8.75586 4.88542 8.50846 4.98633 8.20898 4.98633H5.58203C5.13932 4.98633 4.85938 5.04492 4.74219 5.16211C4.63151 5.2793 4.57617 5.55599 4.57617 5.99219V8.61914C4.57617 8.9056 4.47526 9.15299 4.27344 9.36133L2.42773 11.1973C2.11523 11.5098 1.95898 11.7474 1.95898 11.9102C1.95898 12.0729 2.11523 12.3105 2.42773 12.623L4.27344 14.459C4.47526 14.6608 4.57617 14.9049 4.57617 15.1914V17.8184C4.57617 18.2546 4.63477 18.5312 4.75195 18.6484C4.86914 18.7656 5.14583 18.8242 5.58203 18.8242ZM10.4355 16.5391C10.2728 16.5391 10.123 16.5033 9.98633 16.4316C9.85612 16.36 9.72917 16.2461 9.60547 16.0898L7.22266 13.1602C7.07292 12.9583 6.99805 12.7565 6.99805 12.5547C6.99805 12.3398 7.06966 12.1576 7.21289 12.0078C7.36263 11.8516 7.54167 11.7734 7.75 11.7734C7.88672 11.7734 8.01042 11.8027 8.12109 11.8613C8.23828 11.9134 8.35547 12.0176 8.47266 12.1738L10.3965 14.6641L14.4492 8.16016C14.6315 7.86719 14.8594 7.7207 15.1328 7.7207C15.3346 7.7207 15.5169 7.78581 15.6797 7.91602C15.8424 8.04622 15.9238 8.21875 15.9238 8.43359C15.9238 8.54427 15.8978 8.65495 15.8457 8.76562C15.8001 8.86979 15.748 8.96745 15.6895 9.05859L11.2266 16.0898C11.0312 16.3893 10.7676 16.5391 10.4355 16.5391Z" fill="#433BA1"/>
</svg>
