<svg width="24" height="44" viewBox="0 0 24 44" fill="none" xmlns="http://www.w3.org/2000/svg">
<path d="M3.42188 18.3557H1.73438C1.48438 18.3557 1.26953 18.2659 1.08984 18.0862C0.917969 17.9065 0.832031 17.6956 0.832031 17.4534C0.832031 17.2112 0.917969 17.0002 1.08984 16.8206C1.26953 16.6331 1.48438 16.5393 1.73438 16.5393H3.42188C3.66406 16.5393 3.87891 16.6292 4.06641 16.8088C4.25391 16.9885 4.34766 17.2034 4.34766 17.4534C4.34766 17.7034 4.25391 17.9182 4.06641 18.0979C3.87891 18.2698 3.66406 18.3557 3.42188 18.3557ZM5.29688 12.0276L4.10156 10.8323C3.92188 10.6526 3.83203 10.4417 3.83203 10.1995C3.83203 9.94946 3.92188 9.73462 4.10156 9.55493C4.28125 9.38306 4.49609 9.29712 4.74609 9.29712C5.00391 9.29712 5.21484 9.38306 5.37891 9.55493L6.57422 10.762C6.74609 10.9338 6.83203 11.1448 6.83203 11.3948C6.83984 11.637 6.75391 11.8479 6.57422 12.0276C6.39453 12.2073 6.17969 12.2971 5.92969 12.2971C5.67969 12.2893 5.46875 12.1995 5.29688 12.0276ZM11.0977 8.87524V7.18774C11.0977 6.94556 11.1836 6.73462 11.3555 6.55493C11.5352 6.37524 11.75 6.2854 12 6.2854C12.2422 6.2854 12.4531 6.37524 12.6328 6.55493C12.8203 6.73462 12.9141 6.94556 12.9141 7.18774V8.87524C12.9141 9.12524 12.8242 9.34009 12.6445 9.51978C12.4648 9.69946 12.25 9.78931 12 9.78931C11.75 9.78931 11.5352 9.69946 11.3555 9.51978C11.1836 9.34009 11.0977 9.12524 11.0977 8.87524ZM17.4258 10.762L18.6211 9.55493C18.8008 9.38306 19.0117 9.29712 19.2539 9.29712C19.5039 9.29712 19.7188 9.38306 19.8984 9.55493C20.0703 9.73462 20.1562 9.94946 20.1562 10.1995C20.1562 10.4417 20.0703 10.6526 19.8984 10.8323L18.6914 12.0276C18.5195 12.2073 18.3086 12.2971 18.0586 12.2971C17.8164 12.2971 17.6055 12.2073 17.4258 12.0276C17.2461 11.8479 17.1562 11.637 17.1562 11.3948C17.1562 11.1448 17.2461 10.9338 17.4258 10.762ZM22.2539 18.3557H20.5664C20.3164 18.3557 20.1016 18.2698 19.9219 18.0979C19.7422 17.9182 19.6523 17.7034 19.6523 17.4534C19.6523 17.2034 19.7422 16.9885 19.9219 16.8088C20.1016 16.6292 20.3164 16.5393 20.5664 16.5393H22.2539C22.4961 16.5393 22.707 16.6331 22.8867 16.8206C23.0664 17.0002 23.1562 17.2112 23.1562 17.4534C23.1562 17.6956 23.0664 17.9065 22.8867 18.0862C22.707 18.2659 22.4961 18.3557 22.2539 18.3557ZM12 11.512C13.1016 11.512 14.0977 11.7542 14.9883 12.2385C15.8867 12.7151 16.5977 13.3674 17.1211 14.1956C17.6523 15.0159 17.918 15.9417 17.918 16.9729C17.918 17.6604 17.8477 18.2659 17.707 18.7893C17.5664 19.3127 17.3867 19.8206 17.168 20.3127C16.9492 20.8049 16.7188 21.344 16.4766 21.9299C16.2344 22.5159 16.0078 23.2073 15.7969 24.0042C15.5938 24.7932 15.4336 25.7542 15.3164 26.887C15.3008 27.0588 15.2461 27.1956 15.1523 27.2971C15.0586 27.3987 14.9258 27.4495 14.7539 27.4495H9.24609C9.07422 27.4495 8.94141 27.3987 8.84766 27.2971C8.75391 27.1956 8.69531 27.0588 8.67188 26.887C8.5625 25.7542 8.40234 24.7932 8.19141 24.0042C7.98828 23.2073 7.76562 22.5159 7.52344 21.9299C7.28125 21.344 7.05078 20.8049 6.83203 20.3127C6.61328 19.8206 6.43359 19.3127 6.29297 18.7893C6.16016 18.2659 6.09375 17.6604 6.09375 16.9729C6.09375 15.9417 6.35547 15.0159 6.87891 14.1956C7.40234 13.3674 8.10938 12.7151 9 12.2385C9.89844 11.7542 10.8984 11.512 12 11.512ZM12 13.0471C11.2109 13.0471 10.4844 13.2151 9.82031 13.551C9.15625 13.8792 8.625 14.3401 8.22656 14.9338C7.82812 15.5198 7.62891 16.1995 7.62891 16.9729C7.62891 17.4651 7.68359 17.9026 7.79297 18.2854C7.90234 18.6682 8.05078 19.0627 8.23828 19.469C8.42578 19.8674 8.625 20.3401 8.83594 20.887C9.05469 21.426 9.26953 22.0979 9.48047 22.9026C9.69922 23.7073 9.89453 24.7112 10.0664 25.9143H13.9219C14.0938 24.7112 14.2852 23.7073 14.4961 22.9026C14.7148 22.0979 14.9336 21.426 15.1523 20.887C15.3711 20.3401 15.5742 19.8674 15.7617 19.469C15.9492 19.0627 16.0977 18.6682 16.207 18.2854C16.3242 17.9026 16.3828 17.4651 16.3828 16.9729C16.3828 16.1995 16.1797 15.5198 15.7734 14.9338C15.375 14.3401 14.8438 13.8792 14.1797 13.551C13.5156 13.2151 12.7891 13.0471 12 13.0471ZM9.19922 29.4299C9.03516 29.4299 8.89844 29.3752 8.78906 29.2659C8.6875 29.1565 8.63672 29.0237 8.63672 28.8674C8.63672 28.7034 8.6875 28.5706 8.78906 28.469C8.89844 28.3596 9.03516 28.3049 9.19922 28.3049H14.8008C14.957 28.3049 15.0898 28.3596 15.1992 28.469C15.3164 28.5706 15.375 28.7034 15.375 28.8674C15.375 29.0237 15.3164 29.1565 15.1992 29.2659C15.0898 29.3752 14.957 29.4299 14.8008 29.4299H9.19922ZM12 32.0081C11.3125 32.0081 10.707 31.8479 10.1836 31.5276C9.66797 31.2073 9.39844 30.7893 9.375 30.2737H14.625C14.5859 30.7893 14.3086 31.2073 13.793 31.5276C13.2773 31.8479 12.6797 32.0081 12 32.0081Z" fill="#433BA1"/>
</svg>
