<svg width="11" height="18" viewBox="0 0 11 18" fill="none" xmlns="http://www.w3.org/2000/svg">
<path d="M0.90625 9.35938C0.90625 9.24479 0.927083 9.14062 0.96875 9.04688C1.01042 8.95312 1.07292 8.86719 1.15625 8.78906L9.1875 1.0625C9.33854 0.911458 9.52344 0.835938 9.74219 0.835938C9.88802 0.835938 10.0182 0.869792 10.1328 0.9375C10.2526 1.00521 10.3464 1.09896 10.4141 1.21875C10.487 1.33333 10.5234 1.46354 10.5234 1.60938C10.5234 1.81771 10.4479 2 10.2969 2.15625L2.8125 9.35938L10.2969 16.5547C10.4479 16.7109 10.5234 16.8932 10.5234 17.1016C10.5234 17.2526 10.487 17.3854 10.4141 17.5C10.3464 17.6198 10.2526 17.7135 10.1328 17.7812C10.0182 17.849 9.88802 17.8828 9.74219 17.8828C9.52344 17.8828 9.33854 17.8073 9.1875 17.6562L1.15625 9.92969C1.07292 9.85156 1.01042 9.76562 0.96875 9.67188C0.927083 9.57292 0.90625 9.46875 0.90625 9.35938Z" fill="#433BA1"/>
</svg>
