<svg width="19" height="23" viewBox="0 0 19 23" fill="none" xmlns="http://www.w3.org/2000/svg">
<path d="M0.955078 3.46289V2.06641C0.955078 1.72135 1.03971 1.45117 1.20898 1.25586C1.37826 1.06055 1.61914 0.962891 1.93164 0.962891H2.41016C2.72917 0.962891 2.97331 1.06055 3.14258 1.25586C3.31836 1.44466 3.40625 1.71484 3.40625 2.06641V3.46289H0.955078ZM0.955078 20.3867V4.60547H3.40625V20.3867L2.41016 22.584C2.35807 22.7012 2.26367 22.7565 2.12695 22.75C1.99023 22.75 1.89583 22.6914 1.84375 22.5742L0.955078 20.3867ZM10.8086 22.7891C10.099 22.7891 9.52279 22.5677 9.08008 22.125C8.64388 21.6823 8.42578 21.1029 8.42578 20.3867V3.50195C8.42578 2.79232 8.64388 2.21615 9.08008 1.77344C9.52279 1.32422 10.099 1.09961 10.8086 1.09961H15.6523C16.362 1.09961 16.9382 1.32422 17.3809 1.77344C17.8236 2.22266 18.0449 2.80208 18.0449 3.51172V20.3965C18.0449 21.1061 17.8236 21.6823 17.3809 22.125C16.9382 22.5677 16.362 22.7891 15.6523 22.7891H10.8086ZM11.0723 21.3633H15.3984C15.763 21.3633 16.056 21.2526 16.2773 21.0312C16.4987 20.8099 16.6094 20.5202 16.6094 20.1621V3.72656C16.6094 3.36849 16.4987 3.08203 16.2773 2.86719C16.056 2.64583 15.763 2.53516 15.3984 2.53516H11.0723C10.7012 2.53516 10.4049 2.64583 10.1836 2.86719C9.96224 3.08203 9.85156 3.36849 9.85156 3.72656V20.1719C9.85156 20.5299 9.96224 20.8164 10.1836 21.0312C10.4049 21.2526 10.7012 21.3633 11.0723 21.3633ZM17.1172 4.49805H12.4395C12.3418 4.49805 12.2572 4.46224 12.1855 4.39062C12.1204 4.3125 12.0879 4.22461 12.0879 4.12695C12.0879 4.01628 12.1237 3.92839 12.1953 3.86328C12.2669 3.79167 12.3516 3.75586 12.4492 3.75586H17.1172V4.49805ZM17.1172 6.05078H13.9922C13.888 6.05078 13.8034 6.01823 13.7383 5.95312C13.6797 5.88151 13.6504 5.79688 13.6504 5.69922C13.6504 5.58854 13.6829 5.50065 13.748 5.43555C13.8132 5.36393 13.8978 5.32812 14.002 5.32812H17.1172V6.05078ZM17.1172 7.62305H13.9922C13.888 7.62305 13.8034 7.59049 13.7383 7.52539C13.6797 7.45378 13.6504 7.36914 13.6504 7.27148C13.6504 7.16081 13.6829 7.07292 13.748 7.00781C13.8132 6.9362 13.8978 6.90039 14.002 6.90039H17.1172V7.62305ZM17.1172 9.18555H13.9922C13.888 9.18555 13.8034 9.14974 13.7383 9.07812C13.6797 9.00651 13.6504 8.91862 13.6504 8.81445C13.6504 8.71029 13.6829 8.62565 13.748 8.56055C13.8132 8.48893 13.8978 8.45312 14.002 8.45312H17.1172V9.18555ZM17.1172 10.748H13.9922C13.888 10.748 13.8034 10.7122 13.7383 10.6406C13.6797 10.569 13.6504 10.4876 13.6504 10.3965C13.6504 10.2793 13.6829 10.1882 13.748 10.123C13.8132 10.0514 13.8978 10.0156 14.002 10.0156H17.1172V10.748ZM17.1172 12.3008H12.4395C12.3418 12.3008 12.2572 12.2682 12.1855 12.2031C12.1204 12.138 12.0879 12.0534 12.0879 11.9492C12.0879 11.8385 12.1237 11.7507 12.1953 11.6855C12.2669 11.6204 12.3516 11.5879 12.4492 11.5879H17.1172V12.3008ZM17.1172 13.8828H13.9922C13.888 13.8828 13.8034 13.847 13.7383 13.7754C13.6797 13.7038 13.6504 13.6159 13.6504 13.5117C13.6504 13.4076 13.6829 13.3229 13.748 13.2578C13.8132 13.1862 13.8978 13.1504 14.002 13.1504H17.1172V13.8828ZM17.1172 15.4453H13.9922C13.888 15.4453 13.8034 15.4095 13.7383 15.3379C13.6797 15.2663 13.6504 15.1816 13.6504 15.084C13.6504 14.9733 13.6829 14.8854 13.748 14.8203C13.8132 14.7552 13.8978 14.7227 14.002 14.7227H17.1172V15.4453ZM17.1172 16.998H13.9922C13.888 16.998 13.8034 16.9622 13.7383 16.8906C13.6797 16.819 13.6504 16.7344 13.6504 16.6367C13.6504 16.5326 13.6829 16.4479 13.748 16.3828C13.8132 16.3112 13.8978 16.2754 14.002 16.2754H17.1172V16.998ZM17.1172 18.5605H13.9922C13.888 18.5605 13.8034 18.528 13.7383 18.4629C13.6797 18.3913 13.6504 18.3001 13.6504 18.1895C13.6504 18.0853 13.6829 18.0007 13.748 17.9355C13.8132 17.8704 13.8978 17.8379 14.002 17.8379H17.1172V18.5605ZM17.1172 20.123H12.4395C12.3418 20.123 12.2572 20.0872 12.1855 20.0156C12.1204 19.944 12.0879 19.8594 12.0879 19.7617C12.0879 19.651 12.1237 19.5599 12.1953 19.4883C12.2669 19.4232 12.3516 19.3906 12.4492 19.3906H17.1172V20.123Z" fill="#433BA1"/>
</svg>
