<svg width="24" height="44" viewBox="0 0 24 44" fill="none" xmlns="http://www.w3.org/2000/svg">
<path d="M5.63672 31.551C5.42578 31.387 5.30078 31.176 5.26172 30.9182C5.22266 30.6526 5.26562 30.3362 5.39062 29.969L7.27734 24.3557L2.46094 20.8987C2.14844 20.6799 1.92578 20.4534 1.79297 20.219C1.66797 19.9768 1.64844 19.7268 1.73438 19.469C1.82031 19.219 1.98438 19.0354 2.22656 18.9182C2.46875 18.801 2.78125 18.7424 3.16406 18.7424L9.07031 18.7893L10.8633 13.1409C10.9883 12.7737 11.1406 12.4963 11.3203 12.3088C11.5078 12.1135 11.7344 12.0159 12 12.0159C12.2656 12.0159 12.4922 12.1135 12.6797 12.3088C12.8672 12.4963 13.0195 12.7737 13.1367 13.1409L14.9297 18.7893L20.8359 18.7424C21.2266 18.7424 21.5391 18.801 21.7734 18.9182C22.0156 19.0354 22.1797 19.219 22.2656 19.469C22.3516 19.7268 22.3281 19.9768 22.1953 20.219C22.0703 20.4534 21.8516 20.6799 21.5391 20.8987L16.7227 24.3557L18.6094 29.969C18.7344 30.3362 18.7773 30.6526 18.7383 30.9182C18.6992 31.176 18.5742 31.387 18.3633 31.551C18.1523 31.7151 17.9141 31.7698 17.6484 31.7151C17.3828 31.6682 17.0938 31.5276 16.7812 31.2932L12 27.7893L7.23047 31.2932C6.91797 31.5276 6.62891 31.6682 6.36328 31.7151C6.09766 31.7698 5.85547 31.7151 5.63672 31.551ZM7.17188 29.4534C7.1875 29.469 7.21484 29.4612 7.25391 29.4299L11.4961 26.1604C11.6602 26.0354 11.8281 25.9729 12 25.9729C12.1797 25.9729 12.3477 26.0354 12.5039 26.1604L16.7578 29.4299C16.7969 29.4612 16.8203 29.469 16.8281 29.4534C16.8359 29.4377 16.8359 29.4104 16.8281 29.3713L15.0469 24.3088C14.9766 24.1135 14.9609 23.9377 15 23.7815C15.0469 23.6252 15.1562 23.4885 15.3281 23.3713L19.7578 20.3479C19.7891 20.3245 19.8008 20.301 19.793 20.2776C19.7852 20.262 19.7617 20.2542 19.7227 20.2542L14.3672 20.3713C14.1562 20.3792 13.9844 20.3401 13.8516 20.2542C13.7266 20.1604 13.6289 20.012 13.5586 19.8088L12.0469 14.6643C12.0391 14.6252 12.0234 14.6057 12 14.6057C11.9766 14.6057 11.9609 14.6252 11.9531 14.6643L10.4414 19.8088C10.3789 20.012 10.2812 20.1604 10.1484 20.2542C10.0156 20.3401 9.84766 20.3792 9.64453 20.3713L4.27734 20.2542C4.23828 20.2542 4.21484 20.262 4.20703 20.2776C4.19922 20.301 4.21094 20.3245 4.24219 20.3479L8.67188 23.3713C8.85156 23.4885 8.96094 23.6252 9 23.7815C9.03906 23.9377 9.02734 24.1135 8.96484 24.3088L7.17188 29.3713C7.16406 29.4104 7.16406 29.4377 7.17188 29.4534Z" fill="#433BA1"/>
</svg>
