<svg width="24" height="44" viewBox="0 0 24 44" fill="none" xmlns="http://www.w3.org/2000/svg">
<path d="M6.73828 32.3127C5.74609 32.3127 5 32.0667 4.5 31.5745C4 31.0823 3.75 30.344 3.75 29.3596V20.3479C3.75 19.3635 4 18.6252 4.5 18.1331C5 17.6409 5.74609 17.3948 6.73828 17.3948H9.30469V19.094H6.76172C6.33984 19.094 6.01172 19.2073 5.77734 19.4338C5.55078 19.6526 5.4375 19.9846 5.4375 20.4299V29.2776C5.4375 29.7229 5.55078 30.0588 5.77734 30.2854C6.01172 30.5042 6.33984 30.6135 6.76172 30.6135H17.2266C17.6484 30.6135 17.9727 30.5042 18.1992 30.2854C18.4336 30.0588 18.5508 29.7229 18.5508 29.2776V20.4299C18.5508 19.9846 18.4336 19.6526 18.1992 19.4338C17.9727 19.2073 17.6484 19.094 17.2266 19.094H14.6719V17.3948H17.25C18.25 17.3948 18.9961 17.6409 19.4883 18.1331C19.9883 18.6252 20.2383 19.3635 20.2383 20.3479V29.3596C20.2383 30.344 19.9883 31.0823 19.4883 31.5745C18.9961 32.0667 18.25 32.3127 17.25 32.3127H6.73828ZM11.9883 25.0471C11.7695 25.0471 11.5742 24.969 11.4023 24.8127C11.2383 24.6487 11.1562 24.4534 11.1562 24.2268V15.0862L11.2266 13.6799L10.7344 14.219L9.44531 15.6135C9.29688 15.7776 9.10547 15.8596 8.87109 15.8596C8.64453 15.8596 8.46094 15.7932 8.32031 15.6604C8.17969 15.5198 8.10938 15.344 8.10938 15.1331C8.10938 14.9299 8.19141 14.7463 8.35547 14.5823L11.3789 11.6877C11.4883 11.5784 11.5898 11.5042 11.6836 11.4651C11.7852 11.426 11.8867 11.4065 11.9883 11.4065C12.0977 11.4065 12.1992 11.426 12.293 11.4651C12.3945 11.5042 12.4961 11.5784 12.5977 11.6877L15.6211 14.5823C15.793 14.7463 15.8789 14.9299 15.8789 15.1331C15.8789 15.344 15.8047 15.5198 15.6562 15.6604C15.5078 15.7932 15.3242 15.8596 15.1055 15.8596C14.8711 15.8596 14.6836 15.7776 14.543 15.6135L13.2539 14.219L12.7617 13.6799L12.832 15.0862V24.2268C12.832 24.4534 12.7461 24.6487 12.5742 24.8127C12.4102 24.969 12.2148 25.0471 11.9883 25.0471Z" fill="#433BA1"/>
</svg>
