<svg width="16" height="17" viewBox="0 0 16 17" fill="none" xmlns="http://www.w3.org/2000/svg">
<path opacity="0.25" d="M0.3125 16.0547C0.213542 15.9557 0.148438 15.8411 0.117188 15.7109C0.0859375 15.5807 0.0859375 15.4479 0.117188 15.3125C0.153646 15.1823 0.21875 15.0703 0.3125 14.9766L6.91406 8.375L0.3125 1.77344C0.21875 1.67969 0.153646 1.56771 0.117188 1.4375C0.0859375 1.30729 0.0859375 1.17708 0.117188 1.04688C0.153646 0.911458 0.21875 0.794271 0.3125 0.695312C0.411458 0.596354 0.526042 0.53125 0.65625 0.5C0.791667 0.463542 0.924479 0.463542 1.05469 0.5C1.1849 0.53125 1.29948 0.596354 1.39844 0.695312L7.99219 7.29688L14.5938 0.695312C14.6927 0.596354 14.8073 0.53125 14.9375 0.5C15.0677 0.46875 15.1979 0.46875 15.3281 0.5C15.4583 0.53125 15.5729 0.596354 15.6719 0.695312C15.7708 0.794271 15.8359 0.908854 15.8672 1.03906C15.9036 1.16927 15.9036 1.30208 15.8672 1.4375C15.8359 1.56771 15.7708 1.67969 15.6719 1.77344L9.07812 8.375L15.6719 14.9766C15.7708 15.0703 15.8359 15.1823 15.8672 15.3125C15.8984 15.4427 15.8984 15.5729 15.8672 15.7031C15.8359 15.8385 15.7708 15.9557 15.6719 16.0547C15.5729 16.1536 15.4583 16.2188 15.3281 16.25C15.1979 16.2812 15.0677 16.2812 14.9375 16.25C14.8073 16.2188 14.6927 16.1536 14.5938 16.0547L7.99219 9.45312L1.39844 16.0547C1.29948 16.1536 1.1849 16.2188 1.05469 16.25C0.924479 16.2812 0.794271 16.2812 0.664062 16.25C0.533854 16.2188 0.416667 16.1536 0.3125 16.0547Z" fill="#433BA1"/>
</svg>
