<svg width="22" height="23" viewBox="0 0 22 23" fill="none" xmlns="http://www.w3.org/2000/svg">
<path d="M10.9922 20.8359C10.862 20.8359 10.7318 20.8333 10.6016 20.8281C10.4766 20.8281 10.3516 20.8203 10.2266 20.8047L9.69531 21.8125C9.63802 21.9219 9.55729 22.0026 9.45312 22.0547C9.35417 22.1068 9.23698 22.1224 9.10156 22.1016C8.96615 22.0755 8.86198 22.0208 8.78906 21.9375C8.71615 21.8542 8.66667 21.7448 8.64062 21.6094L8.46875 20.5C8.22396 20.4375 7.98177 20.362 7.74219 20.2734C7.5026 20.1849 7.26562 20.0885 7.03125 19.9844L6.21875 20.7188C6.11979 20.8021 6.01042 20.8542 5.89062 20.875C5.77604 20.8958 5.65365 20.8724 5.52344 20.8047C5.41406 20.7422 5.33854 20.6562 5.29688 20.5469C5.25521 20.4375 5.2474 20.3151 5.27344 20.1797L5.49219 19.0859C5.29427 18.9401 5.09635 18.7865 4.89844 18.625C4.70052 18.4635 4.51042 18.2943 4.32812 18.1172L3.3125 18.5391C3.18229 18.5911 3.0599 18.6016 2.94531 18.5703C2.83594 18.5443 2.72917 18.4766 2.625 18.3672C2.54167 18.2682 2.4974 18.1589 2.49219 18.0391C2.49219 17.9245 2.52604 17.8099 2.59375 17.6953L3.17188 16.7422C3.03646 16.5391 2.90625 16.3255 2.78125 16.1016C2.65625 15.8776 2.53385 15.651 2.41406 15.4219L1.30469 15.4688C1.17448 15.474 1.05729 15.4453 0.953125 15.3828C0.854167 15.3203 0.783854 15.2214 0.742188 15.0859C0.700521 14.9609 0.697917 14.8438 0.734375 14.7344C0.770833 14.6198 0.838542 14.526 0.9375 14.4531L1.8125 13.75C1.74479 13.5104 1.6901 13.2656 1.64844 13.0156C1.60677 12.7604 1.57812 12.5026 1.5625 12.2422L0.492188 11.8984C0.356771 11.8568 0.255208 11.7917 0.1875 11.7031C0.125 11.6094 0.09375 11.4948 0.09375 11.3594C0.09375 11.2188 0.125 11.1042 0.1875 11.0156C0.255208 10.9219 0.356771 10.8542 0.492188 10.8125L1.5625 10.4766C1.57812 10.2161 1.60677 9.96094 1.64844 9.71094C1.6901 9.46094 1.74479 9.21094 1.8125 8.96094L0.9375 8.26562C0.833333 8.18229 0.763021 8.08854 0.726562 7.98438C0.695312 7.88021 0.700521 7.76562 0.742188 7.64062C0.783854 7.50521 0.854167 7.40625 0.953125 7.34375C1.05729 7.28125 1.17448 7.2526 1.30469 7.25781L2.41406 7.29688C2.53385 7.0625 2.65625 6.83594 2.78125 6.61719C2.90625 6.39844 3.03906 6.1849 3.17969 5.97656L2.58594 5.01562C2.51823 4.91146 2.48698 4.80208 2.49219 4.6875C2.5026 4.56771 2.54688 4.45833 2.625 4.35938C2.72917 4.24479 2.83594 4.17448 2.94531 4.14844C3.0599 4.1224 3.17969 4.13542 3.30469 4.1875L4.32812 4.59375C4.51042 4.42708 4.70052 4.26302 4.89844 4.10156C5.09635 3.9349 5.29427 3.77865 5.49219 3.63281L5.27344 2.54688C5.24219 2.40625 5.2474 2.28385 5.28906 2.17969C5.33594 2.07031 5.41406 1.98438 5.52344 1.92188C5.65365 1.85417 5.77604 1.82812 5.89062 1.84375C6.00521 1.85938 6.11458 1.91406 6.21875 2.00781L7.03125 2.72656C7.26562 2.6276 7.5026 2.53646 7.74219 2.45312C7.98177 2.36458 8.22396 2.28646 8.46875 2.21875L8.64062 1.11719C8.66667 0.981771 8.71615 0.872396 8.78906 0.789062C8.86198 0.705729 8.96615 0.651042 9.10156 0.625C9.23698 0.604167 9.35677 0.619792 9.46094 0.671875C9.5651 0.71875 9.64323 0.794271 9.69531 0.898438L10.2266 1.91406C10.3568 1.89844 10.4844 1.88802 10.6094 1.88281C10.7344 1.8776 10.862 1.875 10.9922 1.875C11.1172 1.875 11.2448 1.8776 11.375 1.88281C11.5052 1.88802 11.6328 1.89844 11.7578 1.91406L12.2891 0.898438C12.3411 0.794271 12.4193 0.71875 12.5234 0.671875C12.6276 0.619792 12.7474 0.604167 12.8828 0.625C13.0182 0.651042 13.125 0.705729 13.2031 0.789062C13.2812 0.872396 13.3281 0.981771 13.3438 1.11719L13.5156 2.21875C13.7604 2.28646 14.0026 2.36458 14.2422 2.45312C14.4818 2.53646 14.7161 2.6276 14.9453 2.72656L15.7734 2C15.8672 1.91146 15.9714 1.85938 16.0859 1.84375C16.2057 1.82812 16.3307 1.85417 16.4609 1.92188C16.5703 1.98438 16.6458 2.07031 16.6875 2.17969C16.7344 2.28385 16.7422 2.40625 16.7109 2.54688L16.4922 3.63281C16.6953 3.77865 16.8932 3.9349 17.0859 4.10156C17.2839 4.26302 17.474 4.42708 17.6562 4.59375L18.6797 4.1875C18.8047 4.13542 18.9245 4.1224 19.0391 4.14844C19.1536 4.17448 19.2604 4.24479 19.3594 4.35938C19.4375 4.45833 19.4792 4.56771 19.4844 4.6875C19.4896 4.80208 19.4609 4.91146 19.3984 5.01562L18.8047 5.97656C19.0911 6.39323 19.3464 6.83333 19.5703 7.29688L20.6875 7.25781C20.8177 7.2526 20.9323 7.28125 21.0312 7.34375C21.1354 7.40625 21.2057 7.50521 21.2422 7.64062C21.2839 7.76562 21.2839 7.88281 21.2422 7.99219C21.2057 8.09635 21.1406 8.1875 21.0469 8.26562L20.1797 8.96094C20.2422 9.21094 20.2943 9.46094 20.3359 9.71094C20.3776 9.96094 20.4115 10.2161 20.4375 10.4766L21.4844 10.8125C21.6198 10.8542 21.724 10.9219 21.7969 11.0156C21.8698 11.1094 21.9062 11.224 21.9062 11.3594C21.9062 11.4948 21.8698 11.6094 21.7969 11.7031C21.724 11.7917 21.6198 11.8568 21.4844 11.8984L20.4375 12.2422C20.4115 12.5026 20.3776 12.7604 20.3359 13.0156C20.2943 13.2656 20.2422 13.5104 20.1797 13.75L21.0469 14.4531C21.1458 14.5312 21.2135 14.6276 21.25 14.7422C21.2917 14.8516 21.2891 14.9661 21.2422 15.0859C21.2057 15.2214 21.1354 15.3203 21.0312 15.3828C20.9323 15.4453 20.8177 15.474 20.6875 15.4688L19.5703 15.4219C19.4557 15.651 19.3359 15.8776 19.2109 16.1016C19.0859 16.3255 18.9505 16.5391 18.8047 16.7422L19.3984 17.6953C19.4661 17.8099 19.4974 17.9245 19.4922 18.0391C19.487 18.1589 19.4427 18.2682 19.3594 18.3672C19.2604 18.4766 19.1536 18.5443 19.0391 18.5703C18.9245 18.6016 18.8021 18.5911 18.6719 18.5391L17.6562 18.1172C17.474 18.2943 17.2839 18.4635 17.0859 18.625C16.8932 18.7865 16.6953 18.9401 16.4922 19.0859L16.7109 20.1797C16.7474 20.3151 16.7422 20.4375 16.6953 20.5469C16.6484 20.6562 16.5703 20.7422 16.4609 20.8047C16.3307 20.8724 16.2057 20.8958 16.0859 20.875C15.9714 20.8542 15.8672 20.8021 15.7734 20.7188L14.9453 19.9844C14.7161 20.0885 14.4818 20.1823 14.2422 20.2656C14.0026 20.3542 13.7604 20.4323 13.5156 20.5L13.3438 21.6094C13.3281 21.7448 13.2812 21.8542 13.2031 21.9375C13.125 22.0208 13.0208 22.0755 12.8906 22.1016C12.75 22.1224 12.6276 22.1068 12.5234 22.0547C12.4245 22.0026 12.3464 21.9219 12.2891 21.8125L11.7578 20.8047C11.6328 20.8203 11.5052 20.8281 11.375 20.8281C11.2448 20.8333 11.1172 20.8359 10.9922 20.8359ZM10.9922 19.4531C12.1224 19.4531 13.1719 19.2448 14.1406 18.8281C15.1094 18.4167 15.9583 17.8411 16.6875 17.1016C17.4167 16.362 17.9844 15.5026 18.3906 14.5234C18.7969 13.5443 19 12.4922 19 11.3672C19 10.237 18.7969 9.18229 18.3906 8.20312C17.9844 7.21875 17.4167 6.35677 16.6875 5.61719C15.9583 4.8776 15.1094 4.29948 14.1406 3.88281C13.1719 3.46615 12.1224 3.25781 10.9922 3.25781C9.86719 3.25781 8.82031 3.46615 7.85156 3.88281C6.88281 4.29948 6.03646 4.8776 5.3125 5.61719C4.58854 6.35677 4.02344 7.21875 3.61719 8.20312C3.21094 9.18229 3.00781 10.237 3.00781 11.3672C3.00781 12.4922 3.21094 13.5443 3.61719 14.5234C4.02344 15.5026 4.58854 16.362 5.3125 17.1016C6.03646 17.8411 6.88281 18.4167 7.85156 18.8281C8.82031 19.2448 9.86719 19.4531 10.9922 19.4531ZM9.36719 9.82812L5.92969 3.95312L7.00781 3.35156L10.4062 9.1875L9.36719 9.82812ZM13.1484 11.9375V10.7266H19.9141V11.9375H13.1484ZM10.4453 13.5469L6.92188 19.3594L5.85938 18.7344L9.42188 12.8906L10.4453 13.5469ZM10.9844 13.8672C10.5208 13.8672 10.099 13.7552 9.71875 13.5312C9.34375 13.3073 9.04427 13.0078 8.82031 12.6328C8.59635 12.2526 8.48438 11.8333 8.48438 11.375C8.48438 10.9115 8.59635 10.4922 8.82031 10.1172C9.04427 9.73698 9.34375 9.4349 9.71875 9.21094C10.099 8.98177 10.5208 8.86719 10.9844 8.86719C11.4427 8.86719 11.862 8.98177 12.2422 9.21094C12.6224 9.4349 12.9245 9.73698 13.1484 10.1172C13.3724 10.4922 13.4844 10.9115 13.4844 11.375C13.4844 11.8333 13.3724 12.2526 13.1484 12.6328C12.9245 13.0078 12.6224 13.3073 12.2422 13.5312C11.862 13.7552 11.4427 13.8672 10.9844 13.8672ZM10.9844 12.5703C11.3229 12.5703 11.6094 12.4583 11.8438 12.2344C12.0781 12.0052 12.1953 11.7188 12.1953 11.375C12.1953 11.0312 12.0781 10.7448 11.8438 10.5156C11.6094 10.2812 11.3229 10.1641 10.9844 10.1641C10.6406 10.1641 10.3542 10.2812 10.125 10.5156C9.89583 10.7448 9.78125 11.0312 9.78125 11.375C9.78125 11.7188 9.89583 12.0052 10.125 12.2344C10.3542 12.4583 10.6406 12.5703 10.9844 12.5703Z" fill="#433BA1"/>
</svg>
