<svg width="19" height="19" viewBox="0 0 19 19" fill="none" xmlns="http://www.w3.org/2000/svg">
<path d="M4.03125 2.58594C3.79688 2.58594 3.59831 2.50456 3.43555 2.3418C3.27279 2.17253 3.19141 1.97396 3.19141 1.74609C3.19141 1.51823 3.27279 1.32292 3.43555 1.16016C3.59831 0.990885 3.79688 0.90625 4.03125 0.90625C4.25911 0.90625 4.45443 0.990885 4.61719 1.16016C4.78646 1.32292 4.87109 1.51823 4.87109 1.74609C4.87109 1.97396 4.78646 2.17253 4.61719 2.3418C4.45443 2.50456 4.25911 2.58594 4.03125 2.58594ZM6.75586 2.58594C6.52799 2.58594 6.32943 2.50456 6.16016 2.3418C5.9974 2.17253 5.91602 1.97396 5.91602 1.74609C5.91602 1.51823 5.9974 1.32292 6.16016 1.16016C6.32943 0.990885 6.52799 0.90625 6.75586 0.90625C6.98372 0.90625 7.17904 0.990885 7.3418 1.16016C7.51107 1.32292 7.5957 1.51823 7.5957 1.74609C7.5957 1.97396 7.51107 2.17253 7.3418 2.3418C7.17904 2.50456 6.98372 2.58594 6.75586 2.58594ZM9.49023 2.58594C9.25586 2.58594 9.05729 2.50456 8.89453 2.3418C8.73177 2.17253 8.65039 1.97396 8.65039 1.74609C8.65039 1.51823 8.73177 1.32292 8.89453 1.16016C9.05729 0.990885 9.25586 0.90625 9.49023 0.90625C9.7181 0.90625 9.91341 0.990885 10.0762 1.16016C10.2454 1.32292 10.3301 1.51823 10.3301 1.74609C10.3301 1.97396 10.2454 2.17253 10.0762 2.3418C9.91341 2.50456 9.7181 2.58594 9.49023 2.58594ZM12.2148 2.58594C11.987 2.58594 11.7884 2.50456 11.6191 2.3418C11.4564 2.17253 11.375 1.97396 11.375 1.74609C11.375 1.51823 11.4564 1.32292 11.6191 1.16016C11.7884 0.990885 11.987 0.90625 12.2148 0.90625C12.4492 0.90625 12.6478 0.990885 12.8105 1.16016C12.9733 1.32292 13.0547 1.51823 13.0547 1.74609C13.0547 1.97396 12.9733 2.17253 12.8105 2.3418C12.6478 2.50456 12.4492 2.58594 12.2148 2.58594ZM14.9492 2.58594C14.7148 2.58594 14.5163 2.50456 14.3535 2.3418C14.1908 2.17253 14.1094 1.97396 14.1094 1.74609C14.1094 1.51823 14.1908 1.32292 14.3535 1.16016C14.5163 0.990885 14.7148 0.90625 14.9492 0.90625C15.1771 0.90625 15.3724 0.990885 15.5352 1.16016C15.7044 1.32292 15.7891 1.51823 15.7891 1.74609C15.7891 1.97396 15.7044 2.17253 15.5352 2.3418C15.3724 2.50456 15.1771 2.58594 14.9492 2.58594ZM17.6738 2.58594C17.446 2.58594 17.2474 2.50456 17.0781 2.3418C16.9154 2.17253 16.834 1.97396 16.834 1.74609C16.834 1.51823 16.9154 1.32292 17.0781 1.16016C17.2474 0.990885 17.446 0.90625 17.6738 0.90625C17.9017 0.90625 18.097 0.990885 18.2598 1.16016C18.429 1.32292 18.5137 1.51823 18.5137 1.74609C18.5137 1.97396 18.429 2.17253 18.2598 2.3418C18.097 2.50456 17.9017 2.58594 17.6738 2.58594ZM17.6738 5.31055C17.446 5.31055 17.2474 5.22917 17.0781 5.06641C16.9154 4.90365 16.834 4.70508 16.834 4.4707C16.834 4.24284 16.9154 4.04753 17.0781 3.88477C17.2474 3.71549 17.446 3.63086 17.6738 3.63086C17.9017 3.63086 18.097 3.71549 18.2598 3.88477C18.429 4.04753 18.5137 4.24284 18.5137 4.4707C18.5137 4.70508 18.429 4.90365 18.2598 5.06641C18.097 5.22917 17.9017 5.31055 17.6738 5.31055ZM17.6738 8.04492C17.446 8.04492 17.2474 7.96354 17.0781 7.80078C16.9154 7.63151 16.834 7.43294 16.834 7.20508C16.834 6.9707 16.9154 6.77214 17.0781 6.60938C17.2474 6.44661 17.446 6.36523 17.6738 6.36523C17.9017 6.36523 18.097 6.44661 18.2598 6.60938C18.429 6.77214 18.5137 6.9707 18.5137 7.20508C18.5137 7.43294 18.429 7.63151 18.2598 7.80078C18.097 7.96354 17.9017 8.04492 17.6738 8.04492ZM17.6738 10.7695C17.446 10.7695 17.2474 10.6882 17.0781 10.5254C16.9154 10.3626 16.834 10.1641 16.834 9.92969C16.834 9.70182 16.9154 9.50651 17.0781 9.34375C17.2474 9.17448 17.446 9.08984 17.6738 9.08984C17.9017 9.08984 18.097 9.17448 18.2598 9.34375C18.429 9.50651 18.5137 9.70182 18.5137 9.92969C18.5137 10.1641 18.429 10.3626 18.2598 10.5254C18.097 10.6882 17.9017 10.7695 17.6738 10.7695ZM17.6738 13.5039C17.446 13.5039 17.2474 13.4225 17.0781 13.2598C16.9154 13.0905 16.834 12.8919 16.834 12.6641C16.834 12.4362 16.9154 12.2409 17.0781 12.0781C17.2474 11.9089 17.446 11.8242 17.6738 11.8242C17.9017 11.8242 18.097 11.9089 18.2598 12.0781C18.429 12.2409 18.5137 12.4362 18.5137 12.6641C18.5137 12.8919 18.429 13.0905 18.2598 13.2598C18.097 13.4225 17.9017 13.5039 17.6738 13.5039ZM17.6738 16.2285C17.446 16.2285 17.2474 16.1471 17.0781 15.9844C16.9154 15.8216 16.834 15.623 16.834 15.3887C16.834 15.1608 16.9154 14.9655 17.0781 14.8027C17.2474 14.6335 17.446 14.5488 17.6738 14.5488C17.9017 14.5488 18.097 14.6335 18.2598 14.8027C18.429 14.9655 18.5137 15.1608 18.5137 15.3887C18.5137 15.623 18.429 15.8216 18.2598 15.9844C18.097 16.1471 17.9017 16.2285 17.6738 16.2285ZM1.26758 18.9531C1.0332 18.9531 0.844401 18.8815 0.701172 18.7383C0.557943 18.5951 0.486328 18.4062 0.486328 18.1719V1.67773C0.486328 1.46289 0.561198 1.2806 0.710938 1.13086C0.860677 0.98112 1.04297 0.90625 1.25781 0.90625C1.47917 0.90625 1.66471 0.98112 1.81445 1.13086C1.9707 1.2806 2.04883 1.46289 2.04883 1.67773V17.1074C2.04883 17.2962 2.14323 17.3906 2.33203 17.3906H17.7324C17.9473 17.3906 18.1296 17.4655 18.2793 17.6152C18.4355 17.765 18.5137 17.9505 18.5137 18.1719C18.5137 18.3867 18.4355 18.569 18.2793 18.7188C18.1296 18.875 17.9473 18.9531 17.7324 18.9531H1.26758ZM4.16797 14.5684L4.8418 11.4141C4.88737 11.1927 5.00456 11.0495 5.19336 10.9844C5.38216 10.9128 5.55469 10.9518 5.71094 11.1016L6.57031 11.9902L11.6094 7.0293L10.7207 6.14062C10.571 5.98438 10.5286 5.81836 10.5938 5.64258C10.6589 5.46029 10.8053 5.34635 11.0332 5.30078L14.168 4.63672C14.3763 4.59115 14.5521 4.63672 14.6953 4.77344C14.8385 4.91016 14.8874 5.07943 14.8418 5.28125L14.168 8.43555C14.1224 8.6569 14.0052 8.80339 13.8164 8.875C13.6276 8.9401 13.4551 8.89779 13.2988 8.74805L12.4297 7.85938L7.40039 12.8203L8.28906 13.709C8.4388 13.8587 8.47786 14.0247 8.40625 14.207C8.34115 14.3893 8.19792 14.5033 7.97656 14.5488L4.83203 15.2129C4.6237 15.2585 4.44792 15.2161 4.30469 15.0859C4.16797 14.9492 4.1224 14.7767 4.16797 14.5684Z" fill="#433BA1"/>
</svg>
